<?xml version="1.0" encoding="UTF-8" standalone="no"?>
<svg
   xmlns:dc="http://purl.org/dc/elements/1.1/"
   xmlns:cc="http://creativecommons.org/ns#"
   xmlns:rdf="http://www.w3.org/1999/02/22-rdf-syntax-ns#"
   xmlns:svg="http://www.w3.org/2000/svg"
   xmlns="http://www.w3.org/2000/svg"
   xmlns:sodipodi="http://sodipodi.sourceforge.net/DTD/sodipodi-0.dtd"
   xmlns:inkscape="http://www.inkscape.org/namespaces/inkscape"
   sodipodi:docname="safari-pinned-tab.svg"
   inkscape:version="1.0 (4035a4fb49, 2020-05-01)"
   id="svg8"
   version="1.1"
   viewBox="0 0 16 16"
   height="16"
   width="16">
  <defs
     id="defs2" />
  <sodipodi:namedview
     inkscape:document-rotation="0"
     inkscape:window-maximized="1"
     inkscape:window-y="-9"
     inkscape:window-x="-9"
     inkscape:window-height="1001"
     inkscape:window-width="1920"
     units="px"
     showgrid="true"
     inkscape:current-layer="layer1"
     inkscape:document-units="px"
     inkscape:cy="7.8464588"
     inkscape:cx="10.091959"
     inkscape:zoom="32"
     inkscape:pageshadow="2"
     inkscape:pageopacity="0.0"
     borderopacity="1.0"
     bordercolor="#666666"
     pagecolor="#ffffff"
     id="base">
    <inkscape:grid
       empspacing="8"
       id="grid3713"
       type="xygrid" />
  </sodipodi:namedview>
  <metadata
     id="metadata5">
    <rdf:RDF>
      <cc:Work
         rdf:about="">
        <dc:format>image/svg+xml</dc:format>
        <dc:type
           rdf:resource="http://purl.org/dc/dcmitype/StillImage" />
        <dc:title></dc:title>
        <dc:creator>
          <cc:Agent>
            <dc:title>Rob</dc:title>
          </cc:Agent>
        </dc:creator>
      </cc:Work>
    </rdf:RDF>
  </metadata>
  <g
     transform="translate(0,-161.53336)"
     id="layer1"
     inkscape:groupmode="layer"
     inkscape:label="Layer 1">
    <path
       id="rect8205"
       style="fill:#ffffff;fill-opacity:0;stroke-width:0;stroke-linejoin:bevel;paint-order:markers fill stroke"
       d="M 0.1904762,161.53336 H 15.809524 c 0.105524,0 0.190476,0.085 0.190476,0.19048 v 15.61904 c 0,0.10553 -0.08495,0.19048 -0.190476,0.19048 H 0.1904762 C 0.0849524,177.53336 0,177.44841 0,177.34288 v -15.61904 c 0,-0.10553 0.084952,-0.19048 0.1904762,-0.19048 z" />
    <path
       id="path8207"
       style="fill:#000000;stroke-width:1"
       d="m 7.714767,164.32701 -0.203125,0.125 -0.166016,0.0996 -0.035156,0.006 -0.095703,0.0176 -0.455078,0.002 h -0.31836 l -0.097656,-0.008 -0.210938,-0.0156 h -0.00195 l -0.152343,-0.0469 -0.234375,-0.0703 -0.154297,0.0996 -0.15625,0.10156 H 5.402267 5.369064 v -0.0605 -0.0156 -0.0781 l -0.042969,0.002 -0.00586,-0.0215 -0.091796,0.0234 -0.660157,0.0176 -0.742187,0.0195 -0.107422,-0.0449 -0.021484,-0.01 -0.00586,-0.004 -0.076172,-0.0605 -0.183593,-0.0371 -0.185547,-0.0391 -0.183594,0.12304 -0.185547,0.12305 H 2.296798 l -0.580078,0.002 -0.142578,-0.0527 0.011719,-0.008 h -0.03125 v -0.002 h -0.00977 l -0.027344,-0.01 -0.199219,-0.0723 -0.40625,0.26563 -0.408203,0.26562 -0.052734,0.0977 -0.015625,0.0293 -0.019531,0.0137 0.00195,0.0215 -0.017578,0.0352 0.050781,1.81445 v 0.0312 l 0.00586,0.36523 0.00586,0.008 0.00195,0.0977 0.021484,2.4375 0.019531,2.23047 0.00391,2.25781 0.00586,0.004 v 0.0156 l 0.00391,0.002 0.027344,0.01 0.00195,0.002 0.0625,0.0508 0.101563,0.084 0.976562,0.0234 0.974609,0.0215 0.076172,-0.0586 0.021485,-0.0156 h 0.00391 l 1.158203,-0.0156 0.095703,-0.002 h 0.015625 l 0.041016,0.002 1.261719,0.0273 h 0.55664 l 0.673828,0.0547 0.324219,-0.0391 0.121094,-0.0137 h 0.169922 l 1.044922,-0.0293 1.046875,-0.0293 0.085937,0.0684 0.039063,0.0312 0.00976,0.0137 0.013672,0.0234 h 0.023438 1.046875 1.048828 l 0.05664,-0.13281 0.02344,-0.0195 0.03516,-0.11914 0.002,-0.002 v -0.002 l 0.107422,-0.25195 0.22461,-0.52734 -0.002,-0.0351 0.01563,-0.0293 v -0.002 l 0.0039,-0.008 -0.02149,-0.23047 -0.0078,-0.0898 -0.03711,-1.23047 -0.04492,-1.5332 0.002,-0.56641 v -0.47461 -0.006 l 0.002,-0.95312 0.267578,1.32226 0.265625,1.32227 0.220703,1.19922 0.220703,1.19921 0.09375,0.4004 0.09375,0.40039 0.0625,0.23828 0.0625,0.23828 0.400391,-0.041 0.402344,-0.041 0.675781,-0.14649 0.662109,-0.14062 h 0.0039 v -0.002 l 0.0098,-0.002 0.0332,-0.0352 0.03516,-0.0352 0.08984,-0.47852 0.08789,-0.47851 v -0.0195 l 0.0098,-0.01 -0.0098,-0.01 v -0.14454 -0.1836 l -0.15625,-0.61523 -0.08594,-0.33398 0.0059,-0.006 -0.0098,-0.01 -0.05859,-0.22852 0.0078,-0.008 -0.01367,-0.0137 -0.0039,-0.0156 -0.05664,-0.26562 0.0039,-0.004 -0.0078,-0.0215 -0.06055,-0.2793 0.0078,-0.008 -0.01758,-0.041 -0.05859,-0.27344 -0.04883,-0.23633 0.002,-0.002 -0.0039,-0.008 -0.0059,-0.0312 -0.0039,-0.0195 v -0.01 h -0.002 l -0.05859,-0.27729 v -0.002 -0.0293 h -0.0059 l -0.166015,-0.79102 0.0078,-0.008 -0.01172,-0.0117 -0.0039,-0.0195 -0.0098,-0.0527 0.0098,-0.0703 -0.01563,0.041 -0.0625,-0.33203 0.0098,-0.0781 -0.01563,0.0449 -0.03516,-0.1875 0.01172,-0.0117 -0.01758,-0.0176 -0.05273,-0.28125 0.0078,-0.008 -0.0098,-0.01 -0.123047,-0.6582 0.0098,-0.01 -0.01563,-0.0156 -0.03125,-0.16797 -0.148437,-0.78906 0.01172,-0.0117 -0.01758,-0.0176 -0.05274,-0.28125 0.0078,-0.008 -0.0098,-0.01 -0.05469,-0.29492 0.0039,-0.004 -0.0059,-0.006 -0.07422,-0.39258 -0.05469,-0.32617 0.01172,-0.0117 -0.01758,-0.0176 -0.04883,-0.2871 0.0039,-0.004 -0.0039,-0.004 -0.08008,-0.45704 v -0.004 -0.0586 l -0.01172,-0.0176 -0.002,-0.004 -0.01758,-0.10156 -0.02734,0.004 v -0.0332 h -0.03711 l -0.0039,-0.004 -0.0059,-0.01 -0.02539,0.0137 h -0.03125 l -0.03711,0.0371 -0.0039,0.002 -0.03125,0.0137 -0.03906,0.004 -0.585937,0.12891 -0.535157,0.11914 -0.179687,-0.008 -0.128906,-0.0195 -0.138672,-0.0215 v -0.01 h -0.03125 -0.03125 l -0.05859,-0.008 -0.002,-0.004 v -0.01 -0.0547 l -0.0332,0.01 -0.0293,-0.0449 -0.253906,0.0586 -0.248047,0.0547 h -0.04687 l -0.515625,-0.0332 -0.556641,-0.0352 -0.0098,-0.008 v -0.004 h -0.0059 l -0.0059,-0.004 -0.01563,-0.0254 -0.01172,0.002 -0.03711,-0.0312 -0.08594,-0.0723 -0.115234,0.0723 -0.03711,0.0234 -0.052734,-0.006 0.03125,0.0195 -0.033203,0.0195 -0.025391,0.002 -0.019531,-0.0586 -0.021484,-0.0684 -0.076172,0.002 -0.023438,-0.0273 -0.128906,0.0293 -0.578125,0.01 -0.730469,0.0117 -0.095703,-0.0332 -0.015625,-0.0234 -0.035156,-0.0586 -0.212891,-0.0391 -0.169922,-0.0312 h -0.00195 l -0.00976,-0.004 -0.00195,0.002 z" />
  </g>
  <inkscape:templateinfo>
    <inkscape:name>default</inkscape:name>
    <inkscape:date>2020-07-01</inkscape:date>
  </inkscape:templateinfo>
</svg>
